<svg xmlns="http://www.w3.org/2000/svg" viewBox="0 0 242.5 87"><defs><style>.cls-1,.cls-2{fill:#fefefc;}.cls-2{stroke:#9c5ead;stroke-miterlimit:10;}.cls-3{fill:#64627a;}</style></defs><title>bodyLogo_1</title><g id="Layer_2" data-name="Layer 2"><g id="Layer_4" data-name="Layer 4"><g id="body-logo"><rect class="cls-1" width="10.53" height="10.53"/><rect class="cls-2" x="10.53" y="11.53" width="10.53" height="10.53"/><rect class="cls-1" x="218.94" y="62" width="10.53" height="10.53"/><rect class="cls-2" x="231.47" y="73.53" width="10.53" height="10.53"/><path class="cls-1" d="M26.52,49.18a16,16,0,0,0,11.29,4.66c3.13,0,5-1.32,5-3,0-2-2.28-2.81-6-3.6-5.83-1.17-14-2.65-14-11,0-5.94,5-11.08,14.1-11.08a21.56,21.56,0,0,1,14.36,4.93l-5,6.52a16.43,16.43,0,0,0-10-3.66c-3,0-4.19,1.22-4.19,2.76,0,1.85,2.17,2.49,6.09,3.23,5.83,1.22,13.88,2.92,13.88,10.92,0,7.1-5.25,11.82-14.73,11.82-7.15,0-12.14-2.23-15.69-5.62Z"/><path class="cls-1" d="M78,38.85,72.63,61H63L52.86,25.65H63.09l5.35,23.58,6-23.58h7l6,23.58,5.3-23.58H103.1L93,61H83.33Z"/><path class="cls-1" d="M106,25.65h9.11V61H106Z"/><path class="cls-1" d="M121.44,25.65h17.7c7.95,0,12.29,5.35,12.29,11.76S147.09,49,139.14,49h-8.58V61h-9.11Zm16.48,7.68h-7.37v7.95h7.37c2.44,0,4.24-1.54,4.24-3.92A4,4,0,0,0,137.92,33.34Z"/><path class="cls-1" d="M155.52,25.65h25.91v7.68h-16.8v5.88h16.43V47H164.64v6.36h16.8V61H155.52Z"/><path class="cls-1" d="M200.52,49h-4.66V61h-9.11V25.65h17.7c7.84,0,12.29,5.19,12.29,11.76,0,6.15-3.76,9.43-7,10.6l7.21,13H206.45Zm2.54-15.69h-7.21v7.95h7.21c2.38,0,4.4-1.54,4.4-4S205.45,33.34,203.06,33.34Z"/><path class="cls-3" d="M61.51,74.06h2.31v3.62a2.67,2.67,0,0,1,2.15-1c1.8,0,3.19,1.42,3.19,3.79S67.75,84.24,66,84.24a2.77,2.77,0,0,1-2.15-1v.84H61.51ZM65.2,82.2a1.77,1.77,0,0,0,0-3.52,1.84,1.84,0,0,0-1.38.66v2.22A1.83,1.83,0,0,0,65.2,82.2Z"/><path class="cls-3" d="M71.12,85c.52,0,.85-.11,1-.41l.17-.39-2.88-7.35h2.43l1.64,4.59,1.65-4.59h2.44L74.27,85.1A2.87,2.87,0,0,1,71.21,87a4.74,4.74,0,0,1-1-.12l.33-2.06A1.28,1.28,0,0,0,71.12,85Z"/><path class="cls-3" d="M82.13,74.06h2.58v7.75h4v2.25h-6.6Z"/><path class="cls-3" d="M94.84,83.19a3.3,3.3,0,0,1-2.5,1A2.1,2.1,0,0,1,89.95,82V76.82h2.31V81c0,.87.45,1.17,1.2,1.17a1.73,1.73,0,0,0,1.38-.7V76.82h2.31v7.25H94.84Z"/><path class="cls-3" d="M102.31,76.64a3.47,3.47,0,0,1,3,1.33l-1.5,1.4a1.58,1.58,0,0,0-1.36-.69,1.76,1.76,0,1,0,1.36,2.82l1.5,1.41a3.51,3.51,0,0,1-3,1.33,3.81,3.81,0,1,1,0-7.6Z"/><path class="cls-3" d="M106.16,74.76a1.32,1.32,0,1,1,1.32,1.32A1.31,1.31,0,0,1,106.16,74.76Zm.17,2.05h2.31v7.25h-2.31Z"/><path class="cls-3" d="M114.59,83.34a3,3,0,0,1-2.25.9,2.39,2.39,0,0,1-2.49-2.38,2.23,2.23,0,0,1,2.49-2.28,2.89,2.89,0,0,1,2.25.84V79.5c0-.63-.54-1-1.47-1a3.23,3.23,0,0,0-2.06.76l-.82-1.46a5.11,5.11,0,0,1,3.28-1.12c1.74,0,3.38.65,3.38,2.89v4.53h-2.31Zm0-1.79A1.65,1.65,0,0,0,113.3,81c-.61,0-1.15.27-1.15.84s.54.84,1.15.84a1.61,1.61,0,0,0,1.29-.53Z"/><path class="cls-3" d="M123.49,79.88a1,1,0,0,0-1.19-1.2,1.79,1.79,0,0,0-1.41.71v4.68h-2.31V76.82h2.31v.89a3.27,3.27,0,0,1,2.5-1.07,2.14,2.14,0,0,1,2.4,2.29v5.13h-2.31Z"/><path class="cls-3" d="M127,80.43a4,4,0,1,1,3.94,3.81A3.74,3.74,0,0,1,127,80.43Zm5.53,0a1.59,1.59,0,1,0-1.59,1.77A1.6,1.6,0,0,0,132.53,80.43Z"/><path class="cls-3" d="M140.66,80.72A4.52,4.52,0,0,0,143.85,82c.89,0,1.42-.37,1.42-.85s-.64-.79-1.71-1c-1.65-.33-4-.75-4-3.12,0-1.68,1.42-3.13,4-3.13a6.1,6.1,0,0,1,4.06,1.39l-1.41,1.84a4.65,4.65,0,0,0-2.82-1c-.85,0-1.19.34-1.19.78s.62.71,1.73.92c1.65.34,3.93.83,3.93,3.09,0,2-1.48,3.34-4.17,3.34a6.12,6.12,0,0,1-4.44-1.59Z"/><path class="cls-3" d="M150.21,81.42a1.41,1.41,0,1,1-1.41,1.41A1.43,1.43,0,0,1,150.21,81.42Z"/><path class="cls-3" d="M163.4,82.55h-4.15l-.51,1.51h-2.81l3.77-10h3.24l3.78,10h-2.81Zm-3.48-2.17h2.81l-1.41-4.07Z"/><path class="cls-3" d="M167.39,74.06h2.31v10h-2.31Z"/><path class="cls-3" d="M176.25,83.22a2.77,2.77,0,0,1-2.15,1c-1.78,0-3.21-1.35-3.21-3.81s1.4-3.79,3.21-3.79a2.69,2.69,0,0,1,2.15,1V74.06h2.29v10h-2.29Zm0-3.9a1.89,1.89,0,0,0-1.4-.64,1.77,1.77,0,0,0,0,3.52,1.9,1.9,0,0,0,1.4-.66Z"/><path class="cls-3" d="M184.52,83.34a3,3,0,0,1-2.25.9,2.39,2.39,0,0,1-2.49-2.38,2.23,2.23,0,0,1,2.49-2.28,2.89,2.89,0,0,1,2.25.84V79.5c0-.63-.54-1-1.47-1a3.23,3.23,0,0,0-2.06.76l-.82-1.46a5.11,5.11,0,0,1,3.28-1.12c1.74,0,3.38.65,3.38,2.89v4.53h-2.31Zm0-1.79a1.65,1.65,0,0,0-1.29-.51c-.61,0-1.15.27-1.15.84s.54.84,1.15.84a1.61,1.61,0,0,0,1.29-.53Z"/><path class="cls-3" d="M193.41,79.88a1,1,0,0,0-1.19-1.2,1.79,1.79,0,0,0-1.41.71v4.68h-2.31V76.82h2.31v.89a3.27,3.27,0,0,1,2.5-1.07,2.14,2.14,0,0,1,2.4,2.29v5.13h-2.31Z"/><path class="cls-3" d="M201.68,83.34a3,3,0,0,1-2.25.9,2.39,2.39,0,0,1-2.49-2.38,2.23,2.23,0,0,1,2.49-2.28,2.89,2.89,0,0,1,2.25.84V79.5c0-.63-.54-1-1.47-1a3.23,3.23,0,0,0-2.06.76l-.82-1.46a5.11,5.11,0,0,1,3.28-1.12c1.74,0,3.38.65,3.38,2.89v4.53h-2.31Zm0-1.79a1.65,1.65,0,0,0-1.29-.51c-.61,0-1.15.27-1.15.84s.54.84,1.15.84a1.61,1.61,0,0,0,1.29-.53Z"/><path class="cls-3" d="M209.57,74.06h2.58v10h-2.58Z"/><path class="cls-3" d="M213.95,74.06h2.58v10h-2.58Z"/></g></g></g></svg>