<svg xmlns="http://www.w3.org/2000/svg" viewBox="0 0 142.18 29.11"><defs><style>.cls-1{fill:#17ebf7;}.cls-2{fill:none;stroke:#17ebf7;stroke-miterlimit:10;stroke-width:3px;}</style></defs><title>Top Score</title><g id="Layer_2" data-name="Layer 2"><g id="Layer_4" data-name="Layer 4"><path class="cls-1" d="M4.85,4.17H0V.29H14.13V4.17H9.31v13.4H4.85Z"/><path class="cls-1" d="M24.06,0c5.29,0,9.23,3.68,9.23,8.94s-3.94,8.94-9.23,8.94S14.8,14.21,14.8,8.94,18.77,0,24.06,0Zm0,3.94a4.67,4.67,0,0,0-4.72,5,4.71,4.71,0,1,0,9.41,0C28.75,6.12,26.91,3.94,24.06,3.94Z"/><path class="cls-1" d="M35.55.29h8.66c3.89,0,6,2.62,6,5.76s-2.13,5.68-6,5.68H40v5.86H35.55ZM43.61,4H40V7.93h3.6A1.91,1.91,0,0,0,45.68,6,1.93,1.93,0,0,0,43.61,4Z"/><path class="cls-1" d="M60,11.8a7.81,7.81,0,0,0,5.52,2.28C67,14.08,68,13.43,68,12.6c0-1-1.12-1.37-3-1.76-2.85-.57-6.84-1.3-6.84-5.39,0-2.9,2.46-5.42,6.9-5.42a10.55,10.55,0,0,1,7,2.41L69.64,5.63a8,8,0,0,0-4.87-1.79c-1.48,0-2,.6-2,1.35,0,.91,1.06,1.22,3,1.58,2.85.6,6.79,1.43,6.79,5.34,0,3.47-2.57,5.78-7.21,5.78a10.58,10.58,0,0,1-7.67-2.75Z"/><path class="cls-1" d="M73.68,8.94c0-5.34,4-8.94,9.23-8.94a8,8,0,0,1,7.67,4.64L86.75,6.46a4.19,4.19,0,0,0-3.84-2.51,4.75,4.75,0,0,0-4.69,5,4.75,4.75,0,0,0,4.69,5,4.19,4.19,0,0,0,3.84-2.51l3.84,1.81a8.09,8.09,0,0,1-7.67,4.64C77.73,17.89,73.68,14.26,73.68,8.94Z"/><path class="cls-1" d="M100.88,0c5.29,0,9.23,3.68,9.23,8.94s-3.94,8.94-9.23,8.94-9.25-3.68-9.25-8.94S95.59,0,100.88,0Zm0,3.94a4.67,4.67,0,0,0-4.72,5,4.71,4.71,0,1,0,9.41,0C105.57,6.12,103.73,3.94,100.88,3.94Z"/><path class="cls-1" d="M119.11,11.72h-2.28v5.86h-4.46V.29H121c3.84,0,6,2.54,6,5.76a5.24,5.24,0,0,1-3.45,5.19l3.53,6.35H122ZM120.35,4h-3.53V7.93h3.53A2,2,0,0,0,122.5,6,2,2,0,0,0,120.35,4Z"/><path class="cls-1" d="M129.51.29h12.68V4H134V6.92h8v3.79h-8v3.11h8.22v3.76H129.51Z"/><line class="cls-2" x1="37.23" y1="27.61" x2="108.23" y2="27.61"/></g></g></svg>